<svg width="85mm" height="85mm" viewBox="0 0 85000 85000"><g xmlns="http://www.w3.org/2000/svg" fill="#303f9f" fill-rule="nonzero" stroke="none" stroke-width="1" stroke-linecap="butt" stroke-linejoin="miter" stroke-miterlimit="10" stroke-dasharray="" stroke-dashoffset="0" font-family="none" font-weight="none" font-size="none" text-anchor="none" style="mix-blend-mode: normal"><path d="M30000,39750h312v187.5h250v-62.5h2000v250h-2000v-62.5h-250v187.5h-312z"/><path d="M20000,40250c-138.07119,0 -250,-111.92881 -250,-250v0c0,-138.07119 111.92881,-250 250,-250v0c138.07119,0 250,111.92881 250,250v0c0,138.07119 -111.92881,250 -250,250zM20000,40250c-138.07119,0 -250,-111.92881 -250,-250v0c0,-138.07119 111.92881,-250 250,-250h10000c138.07119,0 250,111.92881 250,250v0c0,138.07119 -111.92881,250 -250,250zM30000,40250c-138.07119,0 -250,-111.92881 -250,-250v0c0,-138.07119 111.92881,-250 250,-250v0c138.07119,0 250,111.92881 250,250v0c0,138.07119 -111.92881,250 -250,250z"/><path d="M60000,40125c-69.03559,0 -125,-55.96441 -125,-125v0c0,-69.03559 55.96441,-125 125,-125v0c69.03559,0 125,55.96441 125,125v0c0,69.03559 -55.96441,125 -125,125zM60000,39875c69.03559,0 125,55.96441 125,125v0c0,69.03559 -55.96441,125 -125,125h-27438c-69.03559,0 -125,-55.96441 -125,-125v0c0,-69.03559 55.96441,-125 125,-125zM32562,40125c-69.03559,0 -125,-55.96441 -125,-125v0c0,-69.03559 55.96441,-125 125,-125v0c69.03559,0 125,55.96441 125,125v0c0,69.03559 -55.96441,125 -125,125z"/><path d="M30000,20156c-86.15642,0 -156,-69.84358 -156,-156v0c0,-86.15642 69.84358,-156 156,-156v0c86.15642,0 156,69.84358 156,156v0c0,86.15642 -69.84358,156 -156,156zM29844.00487,20001.23216c-0.68051,-86.15373 68.60924,-156.54679 154.76297,-157.2273v0c86.15373,-0.68051 156.54679,68.60924 157.2273,154.76297l156,19750c0.68051,86.15373 -68.60924,156.54679 -154.76297,157.2273v0c-86.15373,0.68051 -156.54679,-68.60924 -157.2273,-154.76297zM30156,39906c-86.15642,0 -156,-69.84358 -156,-156v0c0,-86.15642 69.84358,-156 156,-156v0c86.15642,0 156,69.84358 156,156v0c0,86.15642 -69.84358,156 -156,156z"/><path d="M30000,60156c-86.15642,0 -156,-69.84358 -156,-156v0c0,-86.15642 69.84358,-156 156,-156v0c86.15642,0 156,69.84358 156,156v0c0,86.15642 -69.84358,156 -156,156zM30155.99513,60001.23216c-0.68051,86.15373 -71.07356,155.44348 -157.2273,154.76297v0c-86.15373,-0.68051 -155.44348,-71.07356 -154.76297,-157.2273l156,-19750c0.68051,-86.15373 71.07356,-155.44348 157.2273,-154.76297v0c86.15373,0.68051 155.44348,71.07356 154.76297,157.2273zM30156,40406c-86.15642,0 -156,-69.84358 -156,-156v0c0,-86.15642 69.84358,-156 156,-156v0c86.15642,0 156,69.84358 156,156v0c0,86.15642 -69.84358,156 -156,156z"/></g></svg>