<svg width="85mm" height="85mm" viewBox="0 0 85000 85000"><g xmlns="http://www.w3.org/2000/svg" fill="#303f9f" fill-rule="nonzero" stroke="none" stroke-width="1" stroke-linecap="butt" stroke-linejoin="miter" stroke-miterlimit="10" stroke-dasharray="" stroke-dashoffset="0" font-family="none" font-weight="none" font-size="none" text-anchor="none" style="mix-blend-mode: normal"><path d="M18000,40000c0,-1104.5695 895.4305,-2000 2000,-2000c1104.5695,0 2000,895.4305 2000,2000c0,1104.5695 -895.4305,2000 -2000,2000c-1104.5695,0 -2000,-895.4305 -2000,-2000z"/><path d="M28000,20000c0,-1104.5695 895.4305,-2000 2000,-2000c1104.5695,0 2000,895.4305 2000,2000c0,1104.5695 -895.4305,2000 -2000,2000c-1104.5695,0 -2000,-895.4305 -2000,-2000z"/><path d="M28000,60000c0,-1104.5695 895.4305,-2000 2000,-2000c1104.5695,0 2000,895.4305 2000,2000c0,1104.5695 -895.4305,2000 -2000,2000c-1104.5695,0 -2000,-895.4305 -2000,-2000z"/><path d="M58000,40000c0,-1104.5695 895.4305,-2000 2000,-2000c1104.5695,0 2000,895.4305 2000,2000c0,1104.5695 -895.4305,2000 -2000,2000c-1104.5695,0 -2000,-895.4305 -2000,-2000z"/></g></svg>